<?xml version="1.0" standalone="no"?>
<!DOCTYPE svg PUBLIC "-//W3C//DTD SVG 20010904//EN"
 "http://www.w3.org/TR/2001/REC-SVG-20010904/DTD/svg10.dtd">
<svg version="1.0" xmlns="http://www.w3.org/2000/svg"
 width="500.000000pt" height="500.000000pt" viewBox="0 0 500.000000 500.000000"
 preserveAspectRatio="xMidYMid meet">
<metadata>
Created by potrace 1.11, written by Peter Selinger 2001-2013
</metadata>
<g transform="translate(0.000000,500.000000) scale(0.100000,-0.100000)"
fill="#000000" stroke="none">
<path d="M1623 4543 c-23 -2 -47 -11 -53 -19 -7 -7 -27 -14 -44 -14 -17 -1
-47 -9 -66 -20 -19 -10 -50 -25 -68 -34 -18 -8 -40 -22 -48 -31 -9 -8 -24 -15
-35 -15 -13 0 -19 -7 -19 -21 0 -13 -20 -42 -50 -70 -32 -31 -50 -56 -50 -71
0 -13 -8 -35 -17 -48 -16 -22 -18 -71 -23 -481 l-5 -455 -40 -37 c-22 -20 -51
-41 -65 -45 -89 -32 -130 -42 -164 -42 -21 0 -55 -4 -75 -10 -20 -5 -124 -14
-231 -19 -229 -11 -276 -23 -340 -83 -71 -66 -82 -108 -79 -286 2 -81 -1 -199
-5 -262 l-8 -115 30 -41 c36 -49 88 -67 264 -90 62 -8 127 -18 143 -23 17 -5
91 -17 165 -26 74 -9 157 -23 184 -31 30 -8 96 -14 165 -14 159 0 190 -6 198
-38 11 -46 -6 -56 -123 -69 -60 -7 -140 -17 -178 -23 -38 -6 -104 -13 -145
-16 -42 -4 -103 -15 -135 -25 -33 -11 -71 -19 -85 -19 -24 0 -145 -37 -224
-69 -22 -8 -43 -25 -47 -37 -5 -11 -7 -216 -5 -455 2 -423 8 -499 35 -499 5 0
12 -9 15 -20 3 -11 13 -20 21 -20 8 0 14 -7 14 -15 0 -8 4 -15 9 -15 5 0 35
-15 68 -33 80 -46 93 -53 128 -67 17 -6 53 -22 80 -35 60 -29 82 -35 155 -45
92 -13 173 -30 205 -45 17 -7 57 -18 90 -24 33 -6 107 -20 165 -32 58 -12 146
-25 195 -29 50 -4 146 -15 215 -24 69 -9 177 -21 240 -26 63 -5 124 -11 135
-14 11 -3 184 -12 385 -21 348 -14 380 -13 680 6 173 11 378 24 455 29 77 5
167 16 200 24 32 9 85 16 116 16 30 0 78 7 105 15 27 8 76 15 109 15 33 1 78
7 100 15 22 8 49 15 59 15 11 0 38 8 60 18 23 11 75 27 116 37 88 22 270 112
310 154 43 44 47 89 19 180 -26 82 -25 43 -17 546 3 198 -13 268 -77 330 -45
44 -209 107 -325 125 -41 7 -86 17 -100 22 -31 13 -112 24 -315 43 -89 8 -192
19 -230 25 -39 5 -105 10 -148 10 -129 0 -117 -51 -117 479 0 489 -8 607 -51
741 -27 84 -77 190 -90 190 -5 0 -9 7 -9 15 0 8 -4 15 -10 15 -5 0 -10 6 -10
14 0 7 -13 27 -30 44 -16 18 -30 34 -30 37 0 12 -113 115 -126 115 -8 0 -14 4
-14 9 0 5 -21 22 -47 38 -143 87 -473 147 -623 112 -25 -6 -59 -8 -76 -4 l-31
5 -6 113 c-8 141 -49 265 -115 347 -93 116 -194 188 -308 219 -38 10 -205 12
-301 4z"/>
</g>
</svg>
